PathFileType	4	(X/Y/Z)	pose_F01_0-71.trc
DataRate	CameraRate	NumFrames	NumMarkers	Units	OrigDataRate	OrigDataStartFrame	OrigNumFrames
30	30	9	21	m	30	47	71
Frame#	Time	CHip			RHip			RKnee			RAnkle			RBigToe			RSmallToe			RHeel			LHip			LKnee			LAnkle			LBigToe			LSmallToe			LHeel			Neck			Nose			RShoulder			RElbow			RWrist			LShoulder			LElbow			LWrist			
		X1	Y1	Z1	X2	Y2	Z2	X3	Y3	Z3	X4	Y4	Z4	X5	Y5	Z5	X6	Y6	Z6	X7	Y7	Z7	X8	Y8	Z8	X9	Y9	Z9	X10	Y10	Z10	X11	Y11	Z11	X12	Y12	Z12	X13	Y13	Z13	X14	Y14	Z14	X15	Y15	Z15	X16	Y16	Z16	X17	Y17	Z17	X18	Y18	Z18	X19	Y19	Z19	X20	Y20	Z20	X21	Y21	Z21	
47	1.5666666666666667	-0.21430969454067209	1.8799575705632068	-0.6034110342552588	-0.23410936054275022	1.8783518280467884	-0.5392874421345751	-0.2510342718469054	1.7321889988081194	-0.5275572659854842													-0.19930790416883176	1.881562184112499	-0.6693558859584616	-0.20008542370757607	1.7248399519549487	-0.628572541769931	-0.2011212125563759	1.593041232416912	-0.5807524850807242	-0.20314060550336696	1.5607282593104712	-0.6351883900876921	-0.1946259011149505	1.5673067739465802	-0.648695350418959	-0.20916477048972001	1.6000479202585927	-0.5487245952072881	-0.20372057654597417	2.044709060083751	-0.6111033340938902	-0.21562309697737492	2.1151436239917043	-0.6288676345100742	-0.2212268177527903	2.038904418461599	-0.5135288653327997	-0.24944193702448222	1.9845687154822087	-0.3655733885109819	-0.2782756851349258	1.9788602970914966	-0.21243949894118827	-0.18227421490508905	2.0499738560142013	-0.7139120053931481	-1.227930182271895	1.8775692770746248	0.33739803443604566	-0.1857430093505982	1.8990009246170445	-0.7463383518538302
48	1.6	-0.21757815319401494	1.8814574350813547	-0.6044709656981989	-0.2373909438647152	1.8788883960529827	-0.5403923061317736	-0.25331304974291946	1.727674494795219	-0.516088480305577													-0.2012011506057087	1.8831638748644668	-0.6758127550330707	-0.2017981149863472	1.7275258581051045	-0.6269313598521429	-0.20005464687324437	1.595330190868165	-0.5779199931860075	-0.20416409365807886	1.5611764673035293	-0.6385226006521237	-0.1954146320719154	1.569266422931376	-0.6525045714368428	-0.20916477048972001	1.6000479202585927	-0.5487245952072881	-0.20857319362827012	2.044886039691008	-0.6180113833372464	-0.22036616848683324	2.115899261004423	-0.6355584724953303	-0.22990664429557653	2.0406080825140775	-0.5162257101658964	-2.029853988524024	1.9019608268955115	1.6718706230669615	-0.27970875316150845	1.976695229247045	-0.2156266705062853	-0.18454537813813804	2.050069732341816	-0.7116413779837327	-1.2309019104387644	1.8776680659957785	0.34022427177840736	-0.18733037180059073	1.8998555538822475	-0.7526416553360752
49	1.6333333333333333	-0.22193375139841895	1.8778871853664356	-0.5995764357089313	-0.23947092510521992	1.8765026069748387	-0.5378389205726098	-0.2548448741952787	1.7237719409541135	-0.5138287396245551													-0.2056429199314223	1.880451690473101	-0.6709168798489711	-0.20392894907281847	1.7271950772616071	-0.6247884272784698	-0.20340959919957524	1.5939491187558275	-0.578480911954073	-0.2040099310011646	1.5665874744755865	-0.6437571772336148	-0.19419507123503643	1.5736922275405338	-0.6548584718904888	-0.20715172210992194	1.598723525084082	-0.5369575111994473	-0.21485860801383963	2.045084465605692	-0.6114283909402388	-0.2262177935163364	2.119013517208848	-0.6375156919742604	-0.23697394504011696	2.0408709856742075	-0.5127116999026522	-0.2562305316004487	1.9822891023161897	-0.36210591308831763	-0.28157374382225925	1.9693099625025163	-0.1981955593830923	-0.18885083662586788	2.0488437184581945	-0.7068654490017989	-1.2283157181565398	1.8767210356423345	0.3366200441230755	-0.18676703380700052	1.89921914289061	-0.7609257203716844
50	1.6666666666666667	-0.22917557430008145	1.8772419443381794	-0.5959974403949895	-0.24670856972729605	1.873868655985326	-0.5341080324290319	-0.25881462113476655	1.72163832545467	-0.5137740213563975													-0.21084896941426096	1.8792888880024126	-0.669406007718252	-0.20736774693068577	1.7266503248408598	-0.625238785148038	-0.19921286651800535	1.5999165008256349	-0.5575291015764821	-0.2049542713043446	1.5716623300026504	-0.6395434594310174	-0.19503752794293955	1.5793388043045715	-0.6485723280440008	-0.2051386737301239	1.5973991299095716	-0.5251904271916066	-0.22000768985567581	2.0447216453878894	-0.6099755741585469	-0.2293694024891558	2.1234705353272485	-0.6396343996799077	-0.2418456841345712	2.041796925530712	-0.5115621207548984	-0.26019057917607197	1.9841530200388446	-0.3662388131677234	-0.28853288753431144	1.9605239533365624	-0.20123103896157093	-0.19190581760018297	2.048899712518382	-0.7074586878956	-1.2408791914841746	1.875277249995693	0.34966399851809365	-0.18917337245919758	1.896002024179739	-0.7582732398146508
51	1.7	-0.2353017921153167	1.8817371121138966	-0.5980672196913936	-0.25290526036575034	1.878111895194567	-0.5278670848317436	-0.26453432800727256	1.726467454790849	-0.5170883310924709													-0.21739198209606989	1.8817394529212177	-0.6629511092817815	-0.21027475055898573	1.7284604819091394	-0.6182241219320891	-0.19931831325482183	1.5978325898683974	-0.5617458822251314	-0.2058986116075246	1.5767371855297143	-0.6353297416284199	-0.19587998465084266	1.5849853810686092	-0.6422861841975128	-0.20947070079473148	1.6009078908427985	-0.5279884681978481	-0.22636445470482897	2.0459433897183428	-0.60384292427326	-0.23163023844040884	2.1238613045664017	-0.6374791058289823	-0.24905366117976285	2.0423472690795292	-0.5086047923329319	-0.2698450187905578	1.982325564114452	-0.36379426142738835	-0.2937843126925697	1.9554072741598088	-0.19394994030182344	-0.20055616802706205	2.049519108073997	-0.6983962002662262	-1.247627413557679	1.874113778465442	0.3570904441424312	-0.19170486810767468	1.8934746924288435	-0.7561668420735289
52	1.7333333333333334	-0.24583955601921667	1.8755356234994633	-0.5950716434382063	-0.2601284293130697	1.8746772104974643	-0.5241026552689907	-0.27347020987296966	1.722202202595674	-0.515935382588471													-0.2242521410221108	1.8773054786601224	-0.6558026643826077	-0.218165170694973	1.725463215110289	-0.6137913727653728	-0.2031696761993786	1.5996664046859368	-0.5668914504905119	-0.21084602598912172	1.5702621385051891	-0.6376823916932323	-0.1995923386103949	1.5783678850241312	-0.6504279659702169	-0.2138027278593391	1.6044166517760254	-0.5307865092040895	-0.23149833952899473	2.0463289952645756	-0.6023416250748954	-0.2367810681737249	2.1268630992196305	-0.637014295753774	-0.25691488304939186	2.0439532280624384	-0.5080792394163878	-0.27466887809975726	1.9824255013101548	-0.3627808432738527	-0.28880835711285746	1.951914308836805	-0.17949243982721502	-0.2048039087872783	2.051461414220534	-0.6938465940023744	-1.2466015041687626	1.8714348616602146	0.350408595830411	-0.19457032766994237	1.8938614780487573	-0.7568394874363698
53	1.7666666666666666	-0.2511256530473664	1.8804679487871265	-0.5942385269749348	-0.2685073870129893	1.8790583616497545	-0.5243637573517482	-0.27750422642016204	1.7242391662341827	-0.511956551016156													-0.22947193202107846	1.882922783014355	-0.654852987814163	-0.22087388570245933	1.733106460625666	-0.6119623434039483	-0.20470951290725722	1.6051257799292895	-0.5703600989667187	-0.20875709781856733	1.570671731662679	-0.6394455539633965	-0.1995553389770447	1.5785741113449598	-0.6500640083677033	-0.21813475492394668	1.6079254127092524	-0.533584550210331	-0.23761532320323994	2.048106968612753	-0.5957143421936965	-0.2418513618248974	2.128274474451855	-0.635521131149719	-0.2607656565114898	2.049375991610489	-0.5046006770716768	-0.282351326125113	1.9860343124982769	-0.36335823042715676	-0.3003400478347796	1.9455056919628435	-0.18267598358657336	-0.20717051789275281	2.0527142051564136	-0.6918924622195948	-1.2635967340675278	1.8725731951972964	0.3683025018994933	-0.19937938292164797	1.8934643211490654	-0.7522449757495692
54	1.8	-0.25738913230797195	1.8754432538351893	-0.5871083579163201	-0.27569752070467296	1.8748234859467354	-0.5203327354667333	-0.27728149474427766	1.719361269767271	-0.5116378537627123													-0.23381842003773093	1.8780815405994042	-0.6498327581769061	-0.22341390268543004	1.726109821582211	-0.6126842656251574	-0.20994179077819466	1.6066424794625667	-0.5702491058244366	-0.2077732085864483	1.5656444413525896	-0.6397700314511408	-0.198693964618808	1.5744082659805758	-0.6500858106490325	-0.22246678198855427	1.611434173642479	-0.5363825912165725	-0.24154421825712769	2.0528330655471567	-0.5915340155666283	-0.24951826194239074	2.132739174813607	-0.6430468126617884	-0.26665424473356175	2.0531261461219397	-0.49918191230977205	-0.2873885005066769	1.9845445894109548	-0.36225468476108114	-0.3032707778765894	1.9439940879136002	-0.18333014081916985	-0.21440857480373135	2.05290829266866	-0.6882552510351928	-1.272150562672016	1.8723008202655727	0.37690686658088085	-0.20156825048751414	1.8921885646104675	-0.7498189191354149
55	1.8333333333333333	-0.2593139342973389	1.8755747459585184	-0.5847421957587077	-0.27748585347206095	1.8751407635497779	-0.5180582533013769	-0.2773623179273199	1.7165580768594426	-0.5024748200224822													-0.23790140078734784	1.8776184481526759	-0.6452792350752029	-0.2243758276888721	1.7162750495330978	-0.6151009906486111	-0.21517406864913213	1.608159178995844	-0.5701381126821545	-0.20763174514550517	1.5652295050009772	-0.639719098968171	-0.19833825504529806	1.5725274635077033	-0.6503671287417202	-0.22679880905316185	1.614942934575706	-0.539180632222814	-0.24762203899404311	2.0536045885797165	-0.5936296698703204	-0.2543825885959824	2.136150455476823	-0.6420952939732673	-0.2746714741061058	2.0547006167524784	-0.4993744591659732	-0.2914467661025537	1.9882890239513804	-0.35957305122170957	-0.3074974167771082	1.9442233319407929	-0.18808500229626332	-0.21955345866603376	2.0548668400755945	-0.6865969354017791	-1.281409484496349	1.8693294580987094	0.3861324876976848	-0.20238321728741973	1.8922199606424897	-0.7524724290132728
